<svg width="436" height="575" viewBox="0 0 436 575" fill="none" xmlns="http://www.w3.org/2000/svg">
<path d="M327.5 483.561L229 508.561V534.561C257.8 528.961 311 551.561 334 563.561C364.8 585.161 393.167 568.561 403.5 557.561C432.7 530.361 436.333 483.561 434.5 463.561C430.5 422.761 396.833 418.228 380.5 421.061C340.9 430.261 328.667 466.561 327.5 483.561Z" fill="url(#paint0_linear_3_2)"/>
<path d="M319.5 541.561C322.333 548.728 330.9 564.161 342.5 568.561M229 508.561L327.5 483.561C328.667 466.561 340.9 430.261 380.5 421.061C396.833 418.228 430.5 422.761 434.5 463.561C436.333 483.561 432.7 530.361 403.5 557.561C393.167 568.561 364.8 585.161 334 563.561C311 551.561 257.8 528.961 229 534.561V508.561Z" stroke="black" stroke-width="2"/>
<path d="M419 489.561C423.4 459.161 405.833 448.561 396.5 447.061C381.7 447.061 369.333 465.061 365 474.061C350.6 500.861 354.333 529.561 358 540.561C368.4 566.561 384 558.728 390.5 551.561C410.1 533.961 417.667 502.894 419 489.561Z" fill="#FDBF81" stroke="black" stroke-width="2"/>
<path d="M378.977 488.568C378.519 493.517 375.695 497.303 372.671 497.023C369.646 496.743 367.565 492.504 368.023 487.554C368.482 482.605 371.305 478.819 374.329 479.099C377.354 479.379 379.435 483.619 378.977 488.568Z" fill="#F47483"/>
<path d="M411.4 504.394C410.026 508.421 406.917 511.004 404.456 510.164C401.995 509.324 401.114 505.379 402.489 501.352C403.863 497.325 406.972 494.742 409.433 495.582C411.894 496.422 412.775 500.367 411.4 504.394Z" fill="#F47585"/>
<path d="M396.677 472.63C396.173 479.222 392.499 484.316 388.471 484.008C384.442 483.7 381.585 478.107 382.089 471.515C382.593 464.923 386.267 459.829 390.295 460.137C394.324 460.445 397.181 466.038 396.677 472.63Z" fill="#F47483"/>
<path d="M411.654 483.481C409.324 490.429 404.204 494.977 400.218 493.641C396.232 492.304 394.888 485.589 397.218 478.641C399.547 471.693 404.667 467.145 408.654 468.481C412.64 469.818 413.983 476.533 411.654 483.481Z" fill="#F47483"/>
<path d="M364 512.561C368.4 499.361 380.5 503.061 381 506.561C381 511.061 381.5 514.061 387 512.561C389 511.061 392.5 508.061 397.5 508.061C405.9 511.661 404.667 521.561 403 526.061C399 536.861 391.667 544.228 388.5 546.561C378.5 551.361 371 546.561 368.5 543.561C365.167 538.728 359.6 525.761 364 512.561Z" fill="#F47483"/>
<path d="M117.317 466.886L224 493.723V521.635C192.807 515.623 135.187 539.884 110.277 552.767C76.9176 575.954 46.1942 558.134 35.0024 546.325C3.37645 517.126 -0.558741 466.886 1.4269 445.415C5.75923 401.616 42.2229 396.75 59.9133 399.791C102.803 409.668 116.053 448.636 117.317 466.886Z" fill="url(#paint1_linear_3_2)"/>
<path d="M125.981 529.149C122.912 536.843 113.634 553.411 101.07 558.134M224 493.723L117.317 466.886C116.053 448.636 102.803 409.668 59.9133 399.791C42.2229 396.75 5.75923 401.616 1.4269 445.415C-0.558741 466.886 3.37645 517.126 35.0024 546.325C46.1942 558.134 76.9176 575.954 110.277 552.767C135.187 539.884 192.807 515.623 224 521.635V493.723Z" stroke="black" stroke-width="2"/>
<path d="M17.7588 473.815C12.9547 441.087 32.1349 429.676 42.3255 428.061C58.4849 428.061 71.9874 447.439 76.7188 457.128C92.4415 485.98 88.3652 516.877 84.3618 528.719C73.0065 556.71 55.9736 548.277 48.8766 540.561C27.4763 521.614 19.2146 488.169 17.7588 473.815Z" fill="#FDBF81" stroke="black" stroke-width="2"/>
<path d="M61.8908 471.603C62.3905 476.918 65.4702 480.982 68.7694 480.682C72.0686 480.381 74.3381 475.829 73.8384 470.515C73.3387 465.2 70.2591 461.136 66.9598 461.436C63.6606 461.737 61.3912 466.289 61.8908 471.603Z" fill="#F47483"/>
<path d="M26.5237 488.597C28.023 492.921 31.4144 495.695 34.0987 494.793C36.7829 493.891 37.7435 489.655 36.2443 485.331C34.745 481.007 31.3536 478.233 28.6693 479.135C25.9851 480.037 25.0245 484.273 26.5237 488.597Z" fill="#F47585"/>
<path d="M42.5838 454.49C43.1334 461.568 47.141 467.038 51.535 466.707C55.929 466.376 59.0455 460.371 58.4959 453.293C57.9463 446.214 53.9387 440.745 49.5447 441.075C45.1507 441.406 42.0342 447.412 42.5838 454.49Z" fill="#F47483"/>
<path d="M26.2472 466.141C28.7882 473.601 34.373 478.486 38.7212 477.051C43.0695 475.615 44.5346 468.404 41.9936 460.944C39.4526 453.484 33.8678 448.6 29.5196 450.035C25.1713 451.47 23.7062 458.681 26.2472 466.141Z" fill="#F47483"/>
<path d="M78.2271 497.366C73.4276 483.193 60.2292 487.166 59.6837 490.924C59.6837 495.756 59.1384 498.977 53.1391 497.366C50.9575 495.756 47.1398 492.534 41.6858 492.534C32.5233 496.4 33.8686 507.03 35.6865 511.862C40.0497 523.459 48.0487 531.369 51.5029 533.874C62.4107 539.029 70.5916 533.874 73.3185 530.653C76.9545 525.463 83.0265 511.54 78.2271 497.366Z" fill="#F47483"/>
<path d="M211.494 53.4771L211.776 53.7228L212.071 53.9807L212.364 54.2365L212.655 54.4904L212.943 54.7422L213.229 54.992L213.513 55.2398L213.794 55.4856L214.074 55.7294L214.351 55.9713L214.625 56.2112L214.898 56.4491L215.168 56.6851L215.436 56.9191L215.702 57.1512L215.965 57.3814L216.227 57.6096L216.486 57.836L216.743 58.0604L216.998 58.283L217.251 58.5037L217.501 58.7225L217.749 58.9394L217.996 59.1544L218.24 59.3676L218.482 59.579L218.722 59.7885L218.96 59.9962L219.195 60.2021L219.429 60.4061L219.661 60.6084L219.89 60.8088L220.118 61.0075L220.343 61.2044L220.567 61.3995L220.788 61.5928L221.007 61.7844L221.225 61.9742L221.44 62.1623L221.654 62.3487L221.865 62.5333L222.075 62.7162L222.282 62.8974L222.488 63.0769L222.691 63.2547L222.893 63.4309L223.093 63.6053L223.291 63.7781L223.487 63.9492L223.681 64.1187L223.873 64.2865L224.063 64.4527L224.252 64.6172L224.438 64.7802L224.623 64.9415L224.806 65.1012L224.987 65.2593L225.166 65.4158L225.344 65.5708L225.519 65.7241L225.693 65.8759L225.865 66.0262L226.035 66.1749L226.204 66.3221L226.371 66.4677L226.536 66.6118L226.699 66.7544L226.86 66.8954L227.02 67.035L227.178 67.1731L227.335 67.3097L227.49 67.4448L227.643 67.5785L227.794 67.7107L227.944 67.8414L228.092 67.9707L228.238 68.0986L228.383 68.225L228.526 68.35L228.668 68.4736L228.808 68.5958L228.946 68.7166L229.083 68.836L229.218 68.954L229.351 69.0707L229.484 69.186L229.614 69.2999L229.743 69.4125L229.87 69.5237L229.996 69.6337L230.121 69.7422L230.243 69.8495L230.365 69.9555L230.485 70.0601L230.603 70.1635L230.72 70.2656L230.835 70.3664L230.949 70.466L231.062 70.5642L231.173 70.6613L231.283 70.7571L231.391 70.8516L231.498 70.9449L231.603 71.037L231.707 71.1279L231.81 71.2176L231.911 71.3061L232.011 71.3934L232.11 71.4795L232.207 71.5645L232.303 71.6483L232.398 71.7309L232.491 71.8124L232.583 71.8927L232.674 71.972L232.763 72.0501L232.852 72.127L232.938 72.2029L233.024 72.2777L233.108 72.3513L233.192 72.4239L233.273 72.4955L233.354 72.5659L233.434 72.6353L233.512 72.7036L233.589 72.7709L233.665 72.8372L233.739 72.9024L233.813 72.9666L233.885 73.0298L233.957 73.092L234.027 73.1533L234.096 73.2135L234.164 73.2727L234.23 73.331L234.296 73.3883L234.36 73.4446L234.424 73.5L234.486 73.5545L234.548 73.608L234.608 73.6606L234.667 73.7123L234.725 73.7631L234.782 73.813L234.838 73.862L234.893 73.9101L234.948 73.9574L235.001 74.0037L235.053 74.0493L235.104 74.0939L235.154 74.1377L235.203 74.1807L235.252 74.2229L235.299 74.2642L235.345 74.3048L235.391 74.3445L235.435 74.3834L235.479 74.4216L235.522 74.4589L235.564 74.4955L235.605 74.5314L235.645 74.5665L235.684 74.6008L235.723 74.6344L235.76 74.6673L235.797 74.6994L235.833 74.7308L235.868 74.7616L235.903 74.7916L235.936 74.8209L235.969 74.8496L236.001 74.8775L236.033 74.9049L236.063 74.9315L236.093 74.9575L236.122 74.9829L236.15 75.0076L236.178 75.0317L236.205 75.0552L236.231 75.0781L236.256 75.1003L236.281 75.122L236.305 75.1431L236.329 75.1636L236.352 75.1836L236.374 75.203L236.396 75.2218L236.416 75.2401L236.437 75.2578L236.456 75.275L236.476 75.2917L236.494 75.3079L236.512 75.3236L236.529 75.3388L236.546 75.3534L236.563 75.3677L236.578 75.3814L236.593 75.3947L236.608 75.4075L236.622 75.4198L236.636 75.4317L236.649 75.4432L236.662 75.4543L236.674 75.4649L236.686 75.4752L236.697 75.485L236.708 75.4944L236.718 75.5035L236.728 75.5122L236.738 75.5205L236.747 75.5284L236.755 75.536L236.764 75.5433L236.772 75.5502L236.779 75.5568L236.786 75.563L236.793 75.569L236.8 75.5746L236.806 75.58L236.811 75.585L236.817 75.5898L236.822 75.5943L236.827 75.5985L236.832 75.6025L236.836 75.6063L236.84 75.6097L236.844 75.613L236.847 75.616L236.85 75.6189L236.853 75.6215L236.856 75.6239L236.859 75.6261L236.861 75.6281L236.863 75.63L236.865 75.6317L236.867 75.6332L236.868 75.6346L236.87 75.6358L236.871 75.6369L236.872 75.6379L236.873 75.6387L236.874 75.6394L236.875 75.6401L236.875 75.6406L236.876 75.641L236.876 75.6414L236.876 75.6417L236.877 75.6419L236.877 75.6421L236.877 75.6422L236.877 75.6423L236.877 75.6423L236.219 76.3956L236.877 75.6424L236.877 75.6425L236.877 75.6425L236.877 75.6427L236.878 75.6428L236.878 75.6431L236.878 75.6433L236.879 75.6437L236.879 75.6442L236.88 75.6447L236.881 75.6453L236.881 75.646L236.882 75.6469L236.883 75.6479L236.885 75.6489L236.886 75.6502L236.888 75.6515L236.889 75.6531L236.891 75.6548L236.893 75.6566L236.896 75.6586L236.898 75.6609L236.901 75.6633L236.904 75.6659L236.907 75.6687L236.911 75.6717L236.915 75.675L236.919 75.6785L236.923 75.6822L236.927 75.6862L236.932 75.6904L236.937 75.6949L236.943 75.6997L236.949 75.7048L236.955 75.7101L236.961 75.7158L236.968 75.7217L236.975 75.728L236.983 75.7346L236.991 75.7415L236.999 75.7487L237.008 75.7563L237.017 75.7643L237.026 75.7726L237.036 75.7812L237.047 75.7903L237.057 75.7997L237.069 75.8096L237.08 75.8198L237.093 75.8305L237.105 75.8415L237.118 75.853L237.132 75.8649L237.146 75.8773L237.161 75.8901L237.176 75.9034L237.192 75.9171L237.208 75.9313L237.225 75.946L237.242 75.9612L237.26 75.9768L237.279 75.993L237.298 76.0097L237.318 76.0269L237.338 76.0447L237.359 76.063L237.38 76.0818L237.403 76.1012L237.425 76.1211L237.449 76.1416L237.473 76.1627L237.498 76.1844L237.523 76.2067L237.55 76.2296L237.576 76.253L237.604 76.2771L237.632 76.3019L237.661 76.3272L237.691 76.3532L237.722 76.3799L237.753 76.4072L237.785 76.4352L237.818 76.4638L237.851 76.4932L237.886 76.5232L237.921 76.5539L237.957 76.5853L237.994 76.6175L238.031 76.6504L238.07 76.684L238.109 76.7183L238.149 76.7534L238.19 76.7892L238.232 76.8258L238.275 76.8632L238.319 76.9013L238.363 76.9403L238.409 76.98L238.455 77.0205L238.503 77.0619L238.551 77.104L238.6 77.147L238.65 77.1908L238.702 77.2355L238.754 77.281L238.807 77.3274L238.861 77.3746L238.916 77.4227L238.972 77.4717L239.029 77.5216L239.087 77.5724L239.147 77.6241L239.207 77.6767L239.268 77.7302L239.33 77.7847L239.394 77.8401L239.458 77.8965L239.524 77.9538L239.591 78.012L239.659 78.0713L239.728 78.1315L239.798 78.1927L239.869 78.2549L239.941 78.3181L240.015 78.3823L240.09 78.4475L240.165 78.5138L240.242 78.5811L240.321 78.6494L240.4 78.7188L240.481 78.7893L240.563 78.8608L240.646 78.9334L240.73 79.0071L240.816 79.0818L240.903 79.1577L240.991 79.2347L241.08 79.3128L241.171 79.392L241.263 79.4723L241.356 79.5538L241.451 79.6365L241.547 79.7203L241.644 79.8052L241.743 79.8913L241.843 79.9786L241.944 80.0671L242.047 80.1568L242.151 80.2477L242.256 80.3398L242.363 80.4331L242.472 80.5277L242.581 80.6235L242.692 80.7205L242.805 80.8188L242.919 80.9183L243.034 81.0191L243.151 81.1212L243.27 81.2246L243.39 81.3293L243.511 81.4352L243.634 81.5425L243.758 81.6511L243.884 81.761L244.011 81.8723L244.14 81.9848L244.271 82.0988L244.403 82.2141L244.536 82.3307L244.672 82.4487L244.808 82.5682L244.947 82.689L245.087 82.8111L245.228 82.9347L245.371 83.0597L245.516 83.1862L245.662 83.314L245.811 83.4433L245.96 83.5741L246.112 83.7063L246.265 83.8399L246.419 83.975L246.576 84.1116L246.734 84.2497L246.894 84.3893L247.055 84.5304L247.219 84.673L247.384 84.8171L247.55 84.9627L247.719 85.1098L247.889 85.2585L248.061 85.4088L248.235 85.5606L248.411 85.714L248.588 85.8689L248.767 86.0255L248.949 86.1836L249.131 86.3433L249.316 86.5046L249.503 86.6675L249.691 86.8321L249.882 86.9983L250.074 87.1661L250.268 87.3355L250.464 87.5067L250.662 87.6794L250.861 87.8539L251.063 88.03L251.267 88.2078L251.472 88.3873L251.68 88.5685L251.889 88.7514L252.101 88.9361L252.314 89.1224L252.529 89.3105L252.747 89.5004L252.966 89.6919L253.188 89.8853L253.411 90.0804L253.637 90.2773L253.864 90.4759L254.094 90.6764L254.325 90.8786L254.559 91.0827L254.795 91.2885L255.032 91.4962L255.272 91.7058L255.514 91.9171L255.759 92.1303L256.005 92.3454L256.253 92.5623L256.504 92.7811L256.757 93.0017L257.011 93.2243L257.268 93.4487L257.528 93.6751L257.789 93.9034L258.053 94.1335L258.318 94.3656L258.586 94.5997L258.857 94.8357L259.129 95.0736L259.404 95.3135L259.681 95.5553L259.96 95.7992L260.242 96.045L260.525 96.2928L260.811 96.5426L261.1 96.7944L261.39 97.0482L261.683 97.304L261.979 97.5619L262.265 97.8117C288.255 95.9701 307.943 73.7313 306.334 47.969C304.716 22.0718 282.188 2.38568 255.996 4.02184C229.943 5.64926 210.113 27.7566 211.494 53.4771Z" fill="#BE4D07" stroke="black" stroke-width="2"/>
<path d="M222.494 53.1649C261.199 87.3183 222.494 53.1649 261.199 87.3183C281.318 86.0615 296.609 68.7328 295.352 48.6136C294.096 28.4945 276.767 13.2035 256.648 14.4603C236.529 15.7171 221.238 33.0457 222.494 53.1649Z" fill="url(#paint2_radial_3_2)"/>
<path d="M137.635 58.0909L137.386 58.3698L137.125 58.6624L136.866 58.9527L136.609 59.2407L136.355 59.5265L136.102 59.8099L135.851 60.0911L135.602 60.37L135.356 60.6467L135.111 60.9212L134.868 61.1934L134.627 61.4634L134.389 61.7311L134.152 61.9967L133.917 62.2601L133.684 62.5213L133.453 62.7803L133.224 63.0371L132.997 63.2918L132.772 63.5444L132.549 63.7948L132.327 64.043L132.108 64.2892L131.89 64.5332L131.674 64.7752L131.461 65.015L131.249 65.2527L131.038 65.4884L130.83 65.722L130.624 65.9536L130.419 66.1831L130.216 66.4105L130.015 66.636L129.816 66.8594L129.619 67.0808L129.423 67.3002L129.229 67.5175L129.037 67.733L128.847 67.9464L128.658 68.1579L128.471 68.3674L128.286 68.5749L128.103 68.7806L127.921 68.9842L127.741 69.186L127.563 69.3859L127.387 69.5838L127.212 69.7799L127.039 69.9741L126.867 70.1663L126.697 70.3568L126.529 70.5454L126.363 70.7321L126.198 70.917L126.035 71.1L125.873 71.2812L125.713 71.4607L125.555 71.6383L125.398 71.8141L125.243 71.9881L125.089 72.1604L124.937 72.3309L124.787 72.4996L124.638 72.6666L124.491 72.8319L124.345 72.9954L124.2 73.1572L124.058 73.3173L123.916 73.4757L123.777 73.6323L123.639 73.7873L123.502 73.9407L123.367 74.0923L123.233 74.2423L123.101 74.3907L122.97 74.5374L122.84 74.6825L122.712 74.826L122.586 74.9678L122.461 75.1081L122.337 75.2467L122.215 75.3838L122.094 75.5193L121.975 75.6532L121.857 75.7856L121.74 75.9164L121.625 76.0457L121.511 76.1735L121.398 76.2997L121.287 76.4244L121.177 76.5476L121.069 76.6694L120.962 76.7896L120.856 76.9084L120.751 77.0257L120.648 77.1415L120.546 77.2559L120.445 77.3689L120.346 77.4804L120.247 77.5905L120.15 77.6992L120.055 77.8065L119.96 77.9124L119.867 78.0169L119.775 78.12L119.684 78.2218L119.595 78.3222L119.507 78.4213L119.419 78.519L119.334 78.6154L119.249 78.7105L119.165 78.8043L119.083 78.8967L119.001 78.9879L118.921 79.0778L118.842 79.1664L118.764 79.2538L118.688 79.3399L118.612 79.4247L118.537 79.5083L118.464 79.5907L118.392 79.6718L118.32 79.7518L118.25 79.8305L118.181 79.9081L118.113 79.9844L118.046 80.0596L117.98 80.1336L117.915 80.2065L117.851 80.2782L117.788 80.3488L117.726 80.4183L117.665 80.4866L117.605 80.5538L117.546 80.6199L117.488 80.685L117.431 80.7489L117.375 80.8118L117.32 80.8736L117.266 80.9343L117.213 80.994L117.16 81.0527L117.109 81.1103L117.058 81.1669L117.009 81.2225L116.96 81.2771L116.912 81.3307L116.865 81.3833L116.819 81.435L116.774 81.4857L116.73 81.5354L116.686 81.5842L116.644 81.632L116.602 81.6789L116.561 81.7249L116.521 81.77L116.481 81.8142L116.443 81.8575L116.405 81.8999L116.368 81.9414L116.332 81.9821L116.296 82.0219L116.261 82.0608L116.227 82.099L116.194 82.1363L116.162 82.1727L116.13 82.2084L116.099 82.2433L116.068 82.2773L116.039 82.3106L116.01 82.3431L115.981 82.3749L115.954 82.4059L115.927 82.4361L115.9 82.4656L115.875 82.4944L115.85 82.5225L115.825 82.5498L115.802 82.5765L115.778 82.6024L115.756 82.6277L115.734 82.6523L115.713 82.6762L115.692 82.6995L115.672 82.7221L115.652 82.7441L115.633 82.7655L115.615 82.7863L115.597 82.8064L115.579 82.8259L115.562 82.8449L115.546 82.8632L115.53 82.881L115.515 82.8982L115.5 82.9149L115.485 82.931L115.472 82.9466L115.458 82.9617L115.445 82.9762L115.433 82.9902L115.421 83.0038L115.409 83.0168L115.398 83.0293L115.387 83.0414L115.377 83.053L115.367 83.0642L115.357 83.0749L115.348 83.0852L115.339 83.095L115.331 83.1045L115.323 83.1135L115.315 83.1221L115.308 83.1303L115.301 83.1382L115.294 83.1456L115.288 83.1527L115.282 83.1595L115.276 83.1659L115.271 83.1719L115.265 83.1777L115.261 83.1831L115.256 83.1882L115.252 83.193L115.248 83.1975L115.244 83.2018L115.24 83.2057L115.237 83.2094L115.234 83.2129L115.231 83.2161L115.229 83.219L115.226 83.2218L115.224 83.2243L115.222 83.2266L115.22 83.2287L115.218 83.2306L115.217 83.2324L115.215 83.2339L115.214 83.2353L115.213 83.2365L115.212 83.2376L115.211 83.2386L115.21 83.2394L115.21 83.2401L115.209 83.2407L115.209 83.2413L115.208 83.2417L115.208 83.242L115.208 83.2422L115.208 83.2424L115.208 83.2426L115.208 83.2427L115.207 83.2427L115.954 83.9083L115.207 83.2428L115.207 83.2429L115.207 83.243L115.207 83.2431L115.207 83.2433L115.207 83.2435L115.206 83.2439L115.206 83.2443L115.206 83.2448L115.205 83.2454L115.204 83.2461L115.204 83.2469L115.203 83.2479L115.202 83.249L115.201 83.2502L115.2 83.2516L115.198 83.2532L115.197 83.2549L115.195 83.2568L115.193 83.2589L115.191 83.2612L115.189 83.2637L115.186 83.2665L115.184 83.2694L115.181 83.2726L115.178 83.2761L115.174 83.2798L115.171 83.2838L115.167 83.288L115.163 83.2925L115.159 83.2973L115.154 83.3024L115.149 83.3078L115.144 83.3136L115.139 83.3197L115.133 83.3261L115.127 83.3328L115.121 83.3399L115.114 83.3474L115.107 83.3552L115.1 83.3634L115.092 83.3721L115.084 83.3811L115.076 83.3905L115.067 83.4004L115.058 83.4106L115.048 83.4213L115.038 83.4325L115.028 83.4441L115.017 83.4562L115.006 83.4687L114.994 83.4818L114.982 83.4953L114.97 83.5093L114.957 83.5239L114.943 83.5389L114.929 83.5545L114.915 83.5706L114.9 83.5873L114.885 83.6045L114.869 83.6223L114.853 83.6407L114.836 83.6596L114.818 83.6791L114.8 83.6993L114.782 83.72L114.763 83.7414L114.743 83.7634L114.723 83.786L114.702 83.8093L114.681 83.8332L114.659 83.8578L114.636 83.8831L114.613 83.9091L114.59 83.9357L114.565 83.9631L114.54 83.9911L114.515 84.0199L114.488 84.0494L114.461 84.0797L114.434 84.1106L114.405 84.1424L114.376 84.1749L114.347 84.2082L114.316 84.2423L114.285 84.2771L114.253 84.3128L114.221 84.3493L114.188 84.3866L114.154 84.4247L114.119 84.4637L114.083 84.5035L114.047 84.5441L114.01 84.5857L113.972 84.6281L113.934 84.6714L113.894 84.7155L113.854 84.7606L113.813 84.8066L113.771 84.8535L113.729 84.9014L113.685 84.9501L113.641 84.9999L113.596 85.0505L113.549 85.1022L113.503 85.1548L113.455 85.2084L113.406 85.263L113.356 85.3186L113.306 85.3752L113.255 85.4329L113.202 85.4915L113.149 85.5512L113.095 85.612L113.04 85.6738L112.984 85.7366L112.927 85.8006L112.869 85.8656L112.81 85.9317L112.75 85.9989L112.689 86.0673L112.627 86.1367L112.564 86.2073L112.5 86.279L112.435 86.3519L112.369 86.4259L112.302 86.5011L112.234 86.5775L112.165 86.655L112.095 86.7338L112.023 86.8137L111.951 86.8949L111.878 86.9772L111.803 87.0608L111.727 87.1457L111.651 87.2318L111.573 87.3191L111.494 87.4077L111.414 87.4976L111.332 87.5888L111.25 87.6813L111.166 87.775L111.081 87.8701L110.995 87.9665L110.908 88.0642L110.82 88.1633L110.73 88.2637L110.64 88.3655L110.548 88.4686L110.455 88.5731L110.36 88.679L110.264 88.7863L110.168 88.895L110.069 89.0051L109.97 89.1167L109.869 89.2296L109.767 89.344L109.664 89.4599L109.559 89.5772L109.453 89.6959L109.346 89.8162L109.238 89.9379L109.128 90.0611L109.017 90.1858L108.904 90.3121L108.79 90.4398L108.675 90.5691L108.558 90.6999L108.44 90.8323L108.321 90.9662L108.2 91.1017L108.078 91.2388L107.954 91.3775L107.829 91.5177L107.702 91.6596L107.575 91.803L107.445 91.9481L107.314 92.0948L107.182 92.2432L107.048 92.3932L106.913 92.5449L106.776 92.6982L106.638 92.8532L106.498 93.0099L106.357 93.1683L106.214 93.3283L106.07 93.4901L105.924 93.6537L105.777 93.8189L105.628 93.9859L105.478 94.1546L105.326 94.3251L105.172 94.4974L105.017 94.6714L104.86 94.8473L104.702 95.0249L104.542 95.2043L104.38 95.3855L104.217 95.5686L104.052 95.7535L103.886 95.9402L103.717 96.1288L103.548 96.3192L103.376 96.5115L103.203 96.7057L103.028 96.9017L102.852 97.0997L102.673 97.2995L102.494 97.5013L102.312 97.705L102.129 97.9106L101.944 98.1182L101.757 98.3277L101.568 98.5391L101.378 98.7526L101.186 98.968L100.992 99.1854L100.796 99.4048L100.599 99.6262L100.4 99.8496L100.199 100.075L99.9959 100.302L99.7912 100.532L99.5848 100.764L99.3764 100.997L99.1663 101.233L98.9543 101.471L98.7405 101.71L98.5247 101.952L98.3071 102.196L98.0877 102.442L97.8663 102.691L97.643 102.941L97.4178 103.194L97.1907 103.448L96.9617 103.705L96.7307 103.964L96.4979 104.225L96.263 104.489L96.0262 104.754L95.7874 105.022L95.5467 105.292L95.304 105.564L95.0593 105.839L94.8125 106.115L94.5638 106.394L94.3131 106.676L94.0604 106.959L93.8056 107.245L93.5487 107.533L93.2899 107.823L93.029 108.116L92.7762 108.399C66.7587 109.806 44.4564 90.1906 42.8471 64.4283C41.2294 38.5311 61.1322 16.1945 87.3244 14.5583C113.377 12.9309 135.804 32.3985 137.635 58.0909Z" fill="#BE4D07" stroke="black" stroke-width="2"/>
<path d="M126.681 59.1501C92.5278 97.8547 126.681 59.1501 92.5278 97.8547C72.4086 99.1115 55.0799 83.8205 53.8231 63.7013C52.5663 43.5822 67.8573 26.2535 87.9765 24.9967C108.096 23.7399 125.424 39.0309 126.681 59.1501Z" fill="url(#paint3_radial_3_2)"/>
<path d="M296.694 134.244C300.46 194.981 249.65 240.336 185.841 244.322C122.039 248.307 67.9408 209.504 64.144 148.723C62.4189 121.108 74.9408 91.509 95.2151 68.3338C115.487 45.1608 143.389 28.5489 172.249 26.746C235.84 22.7737 286.824 72.1722 296.694 134.244Z" fill="url(#paint4_radial_3_2)" stroke="black" stroke-width="2"/>
<path d="M144.176 114.667C144.624 121.833 139.178 128.005 132.012 128.453C124.846 128.9 118.675 123.454 118.227 116.288C117.779 109.123 123.225 102.951 130.391 102.503C137.557 102.055 143.729 107.502 144.176 114.667Z" fill="#010000"/>
<path d="M136.223 115.665C136.413 118.697 134.108 121.308 131.077 121.497C128.045 121.687 125.434 119.383 125.245 116.351C125.055 113.319 127.359 110.708 130.391 110.519C133.423 110.329 136.034 112.633 136.223 115.665Z" fill="white"/>
<path d="M227.015 109.493C227.463 116.658 222.016 122.83 214.851 123.278C207.685 123.725 201.513 118.279 201.066 111.114C200.618 103.948 206.064 97.776 213.23 97.3284C220.395 96.8808 226.567 102.327 227.015 109.493Z" fill="#010000"/>
<path d="M219.062 110.49C219.251 113.522 216.947 116.133 213.915 116.323C210.884 116.512 208.272 114.208 208.083 111.176C207.894 108.145 210.198 105.533 213.229 105.344C216.261 105.155 218.872 107.459 219.062 110.49Z" fill="white"/>
<ellipse cx="175.613" cy="168.813" rx="67" ry="55" transform="rotate(-3.57448 175.613 168.813)" fill="#FDBF81"/>
<path d="M208.02 142.241C208.829 155.194 193.622 166.686 174.054 167.908C154.486 169.131 137.967 159.621 137.158 146.667C136.349 133.714 151.556 122.222 171.124 121C190.692 119.777 207.211 129.287 208.02 142.241Z" fill="url(#paint5_radial_3_2)"/>
<path d="M176.986 166.723L168.502 167.253L173.523 199.503L176.517 199.316L176.986 166.723Z" fill="#4A0C05"/>
<path d="M147.23 195.634C151.503 197.204 164.16 201.991 176.111 200.844C188.063 199.697 199.098 194.565 203.121 192.143" stroke="#4A0C05" stroke-width="4"/>
<g filter="url(#filter0_d_3_2)">
<path d="M173.893 233.053C222.532 209.705 267.942 164.222 284.568 144.399C282.907 149.817 292.158 185.561 296.99 202.756C299.39 214.266 323.312 271.432 334.973 298.576C349.59 329.994 358.646 370.034 361.347 386.126C363.231 443.273 333.714 480.697 318.72 492.265C283.427 528.322 238.056 536.463 219.782 536.027C156.955 538.863 111.697 502.681 96.921 484.235C63.9301 447.726 57.9723 398.893 59.1173 379.041C58.243 343.214 82.3584 307.593 94.5254 294.26C104.812 281.789 151.723 248.259 173.893 233.053Z" fill="url(#paint6_linear_3_2)" stroke="#620606"/>
<g filter="url(#filter1_d_3_2)">
<path d="M286.007 245.858C276.375 226.744 269.433 201.046 271.886 193.042C253.608 205.22 259.173 225.738 262.324 235.234L306.245 349.037C326.375 399.384 300.864 445.713 285.593 462.583C251.403 503.828 195.822 506.461 172.305 502.621C268.497 531.559 317.361 465.135 329.769 428.306C342.646 395.077 324.317 338.412 313.543 314.234L286.007 245.858Z" fill="white"/>
</g>
</g>
<path d="M127.5 233.561C163.5 237.961 152.833 271.394 143 287.561C143 303.561 123.333 320.561 113.5 327.061C105.1 338.261 85.6667 338.728 77 337.561C45 327.961 55.6667 286.894 65 267.561C81.4 237.961 113.5 232.561 127.5 233.561Z" fill="url(#paint7_radial_3_2)"/>
<path d="M85 302.561C83.8334 312.061 87.9 330.261 113.5 327.061M113.5 327.061C105.1 338.261 85.6667 338.728 77 337.561C45 327.961 55.6667 286.894 65 267.561C81.4 237.961 113.5 232.561 127.5 233.561C163.5 237.961 152.833 271.394 143 287.561C143 303.561 123.333 320.561 113.5 327.061ZM118.5 271.061C126.167 266.894 141.8 264.761 143 289.561" stroke="black" stroke-width="2"/>
<path d="M316.966 202.014C297.57 217.375 299.462 244.578 302.832 256.259C308.835 281.556 330.495 298.292 340.574 303.498C361.674 319.223 382.259 305.206 389.915 296.232C411.94 268.287 394.73 235.447 383.372 222.52C351.408 190.462 325.783 195.492 316.966 202.014Z" fill="url(#paint8_radial_3_2)"/>
<path d="M304.04 260.819C303.853 252.388 307.669 234.832 324.435 232.055M343.146 305.339C338.071 295.224 333.951 273.09 358.074 265.468M302.832 256.259C299.462 244.578 297.57 217.375 316.966 202.014C325.783 195.492 351.408 190.462 383.372 222.52C394.73 235.447 411.94 268.287 389.915 296.232C382.259 305.206 361.674 319.223 340.574 303.498C330.495 298.292 308.835 281.556 302.832 256.259Z" stroke="black" stroke-width="2"/>
<defs>
<filter id="filter0_d_3_2" x="58.4879" y="144.078" width="303.445" height="396.607" filterUnits="userSpaceOnUse" color-interpolation-filters="sRGB">
<feFlood flood-opacity="0" result="BackgroundImageFix"/>
<feColorMatrix in="SourceAlpha" type="matrix" values="0 0 0 0 0 0 0 0 0 0 0 0 0 0 0 0 0 0 127 0" result="hardAlpha"/>
<feOffset dy="4"/>
<feComposite in2="hardAlpha" operator="out"/>
<feColorMatrix type="matrix" values="0 0 0 0 0 0 0 0 0 0 0 0 0 0 0 0 0 0 0.25 0"/>
<feBlend mode="normal" in2="BackgroundImageFix" result="effect1_dropShadow_3_2"/>
<feBlend mode="normal" in="SourceGraphic" in2="effect1_dropShadow_3_2" result="shape"/>
</filter>
<filter id="filter1_d_3_2" x="172.305" y="193.042" width="170.879" height="324.684" filterUnits="userSpaceOnUse" color-interpolation-filters="sRGB">
<feFlood flood-opacity="0" result="BackgroundImageFix"/>
<feColorMatrix in="SourceAlpha" type="matrix" values="0 0 0 0 0 0 0 0 0 0 0 0 0 0 0 0 0 0 127 0" result="hardAlpha"/>
<feOffset dx="5" dy="4"/>
<feGaussianBlur stdDeviation="2"/>
<feComposite in2="hardAlpha" operator="out"/>
<feColorMatrix type="matrix" values="0 0 0 0 0 0 0 0 0 0 0 0 0 0 0 0 0 0 0.25 0"/>
<feBlend mode="normal" in2="BackgroundImageFix" result="effect1_dropShadow_3_2"/>
<feBlend mode="normal" in="SourceGraphic" in2="effect1_dropShadow_3_2" result="shape"/>
</filter>
<linearGradient id="paint0_linear_3_2" x1="367" y1="420.061" x2="331.947" y2="574.082" gradientUnits="userSpaceOnUse">
<stop offset="0.51605" stop-color="#BE4D07"/>
<stop offset="0.809682" stop-color="#D77132" stop-opacity="0.94"/>
</linearGradient>
<linearGradient id="paint1_linear_3_2" x1="74.5349" y1="398.718" x2="111.864" y2="564.204" gradientUnits="userSpaceOnUse">
<stop offset="0.51605" stop-color="#BE4D07"/>
<stop offset="0.809682" stop-color="#D77132" stop-opacity="0.94"/>
</linearGradient>
<radialGradient id="paint2_radial_3_2" cx="0" cy="0" r="1" gradientUnits="userSpaceOnUse" gradientTransform="translate(259.516 52.3552) rotate(130.936) scale(41.3673)">
<stop offset="0.762496" stop-color="#711A13"/>
<stop offset="1" stop-color="#2C0804"/>
</radialGradient>
<radialGradient id="paint3_radial_3_2" cx="0" cy="0" r="1" gradientUnits="userSpaceOnUse" gradientTransform="translate(89.8466 62.954) rotate(41.9152) scale(41.3673)">
<stop offset="0.762496" stop-color="#711A13"/>
<stop offset="1" stop-color="#2C0804"/>
</radialGradient>
<radialGradient id="paint4_radial_3_2" cx="0" cy="0" r="1" gradientUnits="userSpaceOnUse" gradientTransform="translate(140.621 105.872) rotate(71.6323) scale(146.868 156.882)">
<stop stop-color="#D9793E"/>
<stop offset="0.770833" stop-color="#BE4D07"/>
</radialGradient>
<radialGradient id="paint5_radial_3_2" cx="0" cy="0" r="1" gradientUnits="userSpaceOnUse" gradientTransform="translate(167.069 136.282) rotate(84.5164) scale(15.0083 30.5169)">
<stop stop-color="#938D8D"/>
<stop offset="1" stop-color="#040404"/>
</radialGradient>
<linearGradient id="paint6_linear_3_2" x1="128.998" y1="271.825" x2="302.155" y2="506.719" gradientUnits="userSpaceOnUse">
<stop offset="0.234375" stop-color="#F33840"/>
<stop offset="0.53125" stop-color="#DA1A23"/>
</linearGradient>
<radialGradient id="paint7_radial_3_2" cx="0" cy="0" r="1" gradientUnits="userSpaceOnUse" gradientTransform="translate(104 286.061) rotate(41.6335) scale(78.2704 84.2396)">
<stop offset="0.09375" stop-color="#D9793E"/>
<stop offset="0.46875" stop-color="#BE4D07"/>
</radialGradient>
<radialGradient id="paint8_radial_3_2" cx="0" cy="0" r="1" gradientUnits="userSpaceOnUse" gradientTransform="translate(349.903 254.319) rotate(107.099) scale(89.7425 93.2993)">
<stop stop-color="#EA8648"/>
<stop offset="0.520833" stop-color="#B74600"/>
</radialGradient>
</defs>
</svg>
